solid OpenSCAD_Model
  facet normal -0.000000 -0.000000 -1.000000
    outer loop
      vertex -19.890438 -2.090569 -15.000000
      vertex -19.890438 2.090569 -15.000000
      vertex -19.021130 -6.180340 -15.000000
    endloop
  endfacet
  facet normal 0.000000 0.000000 -1.000000
    outer loop
      vertex -19.021130 -6.180340 -15.000000
      vertex -19.890438 2.090569 -15.000000
      vertex -19.021130 6.180340 -15.000000
    endloop
  endfacet
  facet normal 0.000000 -0.000000 -1.000000
    outer loop
      vertex -19.021130 -6.180340 -15.000000
      vertex -19.021130 6.180340 -15.000000
      vertex -17.320508 10.000000 -15.000000
    endloop
  endfacet
  facet normal 0.000000 0.000000 -1.000000
    outer loop
      vertex -19.021130 -6.180340 -15.000000
      vertex -17.320508 10.000000 -15.000000
      vertex -14.862897 13.382612 -15.000000
    endloop
  endfacet
  facet normal 0.000000 0.000000 -1.000000
    outer loop
      vertex -19.021130 -6.180340 -15.000000
      vertex -14.862897 13.382612 -15.000000
      vertex -11.755705 16.180340 -15.000000
    endloop
  endfacet
  facet normal 0.000000 0.000000 -1.000000
    outer loop
      vertex -19.021130 -6.180340 -15.000000
      vertex -11.755705 16.180340 -15.000000
      vertex -8.134733 18.270909 -15.000000
    endloop
  endfacet
  facet normal 0.000000 0.000000 -1.000000
    outer loop
      vertex -8.640443 11.892550 -15.000000
      vertex -8.134733 18.270909 -15.000000
      vertex -4.158234 19.562952 -15.000000
    endloop
  endfacet
  facet normal 0.000000 0.000000 -1.000000
    outer loop
      vertex -5.979029 13.429118 -15.000000
      vertex -4.158234 19.562952 -15.000000
      vertex 0.000000 20.000000 -15.000000
    endloop
  endfacet
  facet normal 0.000000 0.000000 -1.000000
    outer loop
      vertex -3.056302 14.378770 -15.000000
      vertex 0.000000 20.000000 -15.000000
      vertex 4.158234 19.562952 -15.000000
    endloop
  endfacet
  facet normal 0.000000 0.000000 -1.000000
    outer loop
      vertex 3.056302 14.378770 -15.000000
      vertex 4.158234 19.562952 -15.000000
      vertex 8.134733 18.270909 -15.000000
    endloop
  endfacet
  facet normal 0.000000 0.000000 -1.000000
    outer loop
      vertex 5.979029 13.429118 -15.000000
      vertex 8.134733 18.270909 -15.000000
      vertex 11.755705 16.180340 -15.000000
    endloop
  endfacet
  facet normal 0.000000 0.000000 -1.000000
    outer loop
      vertex 8.640443 11.892550 -15.000000
      vertex 11.755705 16.180340 -15.000000
      vertex 14.862897 13.382612 -15.000000
    endloop
  endfacet
  facet normal 0.000000 0.000000 -1.000000
    outer loop
      vertex 10.924229 9.836220 -15.000000
      vertex 14.862897 13.382612 -15.000000
      vertex 17.320508 10.000000 -15.000000
    endloop
  endfacet
  facet normal -0.000000 0.000000 -1.000000
    outer loop
      vertex 12.730573 7.350000 -15.000000
      vertex 17.320508 10.000000 -15.000000
      vertex 19.021130 6.180340 -15.000000
    endloop
  endfacet
  facet normal 0.000000 0.000000 -1.000000
    outer loop
      vertex 14.619472 1.536568 -15.000000
      vertex 19.021130 6.180340 -15.000000
      vertex 19.890438 2.090569 -15.000000
    endloop
  endfacet
  facet normal -0.000000 0.000000 -1.000000
    outer loop
      vertex 14.619472 -1.536568 -15.000000
      vertex 19.890438 2.090569 -15.000000
      vertex 19.890438 -2.090569 -15.000000
    endloop
  endfacet
  facet normal -0.000000 0.000000 -1.000000
    outer loop
      vertex 13.980531 -4.542550 -15.000000
      vertex 19.890438 -2.090569 -15.000000
      vertex 19.021130 -6.180340 -15.000000
    endloop
  endfacet
  facet normal -0.000000 0.000000 -1.000000
    outer loop
      vertex 12.730573 -7.350000 -15.000000
      vertex 19.021130 -6.180340 -15.000000
      vertex 17.320508 -10.000000 -15.000000
    endloop
  endfacet
  facet normal -0.000000 0.000000 -1.000000
    outer loop
      vertex 8.640443 -11.892550 -15.000000
      vertex 17.320508 -10.000000 -15.000000
      vertex 14.862897 -13.382612 -15.000000
    endloop
  endfacet
  facet normal -0.000000 0.000000 -1.000000
    outer loop
      vertex 5.979029 -13.429118 -15.000000
      vertex 14.862897 -13.382612 -15.000000
      vertex 11.755705 -16.180340 -15.000000
    endloop
  endfacet
  facet normal 0.000000 0.000000 -1.000000
    outer loop
      vertex 3.056302 -14.378770 -15.000000
      vertex 11.755705 -16.180340 -15.000000
      vertex 8.134733 -18.270909 -15.000000
    endloop
  endfacet
  facet normal 0.000000 0.000000 -1.000000
    outer loop
      vertex -3.056302 -14.378770 -15.000000
      vertex 8.134733 -18.270909 -15.000000
      vertex 4.158234 -19.562952 -15.000000
    endloop
  endfacet
  facet normal 0.000000 0.000000 -1.000000
    outer loop
      vertex -19.021130 -6.180340 -15.000000
      vertex 4.158234 -19.562952 -15.000000
      vertex 0.000000 -20.000000 -15.000000
    endloop
  endfacet
  facet normal 0.000000 0.000000 -1.000000
    outer loop
      vertex -19.021130 -6.180340 -15.000000
      vertex 0.000000 -20.000000 -15.000000
      vertex -4.158234 -19.562952 -15.000000
    endloop
  endfacet
  facet normal 0.000000 0.000000 -1.000000
    outer loop
      vertex -19.021130 -6.180340 -15.000000
      vertex -4.158234 -19.562952 -15.000000
      vertex -8.134733 -18.270909 -15.000000
    endloop
  endfacet
  facet normal 0.000000 0.000000 -1.000000
    outer loop
      vertex -19.021130 -6.180340 -15.000000
      vertex -8.134733 -18.270909 -15.000000
      vertex -11.755705 -16.180340 -15.000000
    endloop
  endfacet
  facet normal 0.000000 0.000000 -1.000000
    outer loop
      vertex -19.021130 -6.180340 -15.000000
      vertex -11.755705 -16.180340 -15.000000
      vertex -14.862897 -13.382612 -15.000000
    endloop
  endfacet
  facet normal 0.000000 0.000000 -1.000000
    outer loop
      vertex -19.021130 -6.180340 -15.000000
      vertex -14.862897 -13.382612 -15.000000
      vertex -17.320508 -10.000000 -15.000000
    endloop
  endfacet
  facet normal 0.000000 0.000000 -1.000000
    outer loop
      vertex -13.980531 -4.542550 -15.000000
      vertex -19.021130 -6.180340 -15.000000
      vertex -14.619472 -1.536568 -15.000000
    endloop
  endfacet
  facet normal 0.000000 0.000000 -1.000000
    outer loop
      vertex 14.619472 -1.536568 -15.000000
      vertex 19.890438 -2.090569 -15.000000
      vertex 13.980531 -4.542550 -15.000000
    endloop
  endfacet
  facet normal 0.000000 0.000000 -1.000000
    outer loop
      vertex -12.730573 -7.350000 -15.000000
      vertex -19.021130 -6.180340 -15.000000
      vertex -13.980531 -4.542550 -15.000000
    endloop
  endfacet
  facet normal 0.000000 0.000000 -1.000000
    outer loop
      vertex -10.924229 -9.836220 -15.000000
      vertex -19.021130 -6.180340 -15.000000
      vertex -12.730573 -7.350000 -15.000000
    endloop
  endfacet
  facet normal 0.000000 0.000000 -1.000000
    outer loop
      vertex -3.056302 -14.378770 -15.000000
      vertex 4.158234 -19.562952 -15.000000
      vertex -5.979029 -13.429118 -15.000000
    endloop
  endfacet
  facet normal 0.000000 0.000000 -1.000000
    outer loop
      vertex -19.021130 -6.180340 -15.000000
      vertex -10.924229 -9.836220 -15.000000
      vertex -8.640443 -11.892550 -15.000000
    endloop
  endfacet
  facet normal 0.000000 0.000000 -1.000000
    outer loop
      vertex -19.021130 -6.180340 -15.000000
      vertex -8.640443 -11.892550 -15.000000
      vertex 4.158234 -19.562952 -15.000000
    endloop
  endfacet
  facet normal 0.000000 0.000000 -1.000000
    outer loop
      vertex -8.640443 -11.892550 -15.000000
      vertex -5.979029 -13.429118 -15.000000
      vertex 4.158234 -19.562952 -15.000000
    endloop
  endfacet
  facet normal 0.000000 0.000000 -1.000000
    outer loop
      vertex 0.000000 -14.700000 -15.000000
      vertex 8.134733 -18.270909 -15.000000
      vertex -3.056302 -14.378770 -15.000000
    endloop
  endfacet
  facet normal 0.000000 0.000000 -1.000000
    outer loop
      vertex 3.056302 -14.378770 -15.000000
      vertex 8.134733 -18.270909 -15.000000
      vertex 0.000000 -14.700000 -15.000000
    endloop
  endfacet
  facet normal 0.000000 0.000000 -1.000000
    outer loop
      vertex 10.924229 -9.836220 -15.000000
      vertex 17.320508 -10.000000 -15.000000
      vertex 8.640443 -11.892550 -15.000000
    endloop
  endfacet
  facet normal 0.000000 0.000000 -1.000000
    outer loop
      vertex 12.730573 -7.350000 -15.000000
      vertex 17.320508 -10.000000 -15.000000
      vertex 10.924229 -9.836220 -15.000000
    endloop
  endfacet
  facet normal 0.000000 0.000000 -1.000000
    outer loop
      vertex 8.640443 -11.892550 -15.000000
      vertex 14.862897 -13.382612 -15.000000
      vertex 5.979029 -13.429118 -15.000000
    endloop
  endfacet
  facet normal 0.000000 0.000000 -1.000000
    outer loop
      vertex 5.979029 -13.429118 -15.000000
      vertex 11.755705 -16.180340 -15.000000
      vertex 3.056302 -14.378770 -15.000000
    endloop
  endfacet
  facet normal -0.000000 0.000000 -1.000000
    outer loop
      vertex 13.980531 4.542550 -15.000000
      vertex 19.021130 6.180340 -15.000000
      vertex 14.619472 1.536568 -15.000000
    endloop
  endfacet
  facet normal -0.000000 0.000000 -1.000000
    outer loop
      vertex 10.924229 9.836220 -15.000000
      vertex 17.320508 10.000000 -15.000000
      vertex 12.730573 7.350000 -15.000000
    endloop
  endfacet
  facet normal 0.000000 0.000000 -1.000000
    outer loop
      vertex 12.730573 7.350000 -15.000000
      vertex 19.021130 6.180340 -15.000000
      vertex 13.980531 4.542550 -15.000000
    endloop
  endfacet
  facet normal -0.000000 0.000000 -1.000000
    outer loop
      vertex 14.619472 1.536568 -15.000000
      vertex 19.890438 2.090569 -15.000000
      vertex 14.619472 -1.536568 -15.000000
    endloop
  endfacet
  facet normal -0.000000 0.000000 -1.000000
    outer loop
      vertex 0.000000 14.700000 -15.000000
      vertex 4.158234 19.562952 -15.000000
      vertex 3.056302 14.378770 -15.000000
    endloop
  endfacet
  facet normal 0.000000 0.000000 -1.000000
    outer loop
      vertex -3.056302 14.378770 -15.000000
      vertex 4.158234 19.562952 -15.000000
      vertex 0.000000 14.700000 -15.000000
    endloop
  endfacet
  facet normal -0.000000 0.000000 -1.000000
    outer loop
      vertex 3.056302 14.378770 -15.000000
      vertex 8.134733 18.270909 -15.000000
      vertex 5.979029 13.429118 -15.000000
    endloop
  endfacet
  facet normal -0.000000 0.000000 -1.000000
    outer loop
      vertex 5.979029 13.429118 -15.000000
      vertex 11.755705 16.180340 -15.000000
      vertex 8.640443 11.892550 -15.000000
    endloop
  endfacet
  facet normal 0.000000 0.000000 -1.000000
    outer loop
      vertex -10.924229 9.836220 -15.000000
      vertex -8.134733 18.270909 -15.000000
      vertex -8.640443 11.892550 -15.000000
    endloop
  endfacet
  facet normal 0.000000 0.000000 -1.000000
    outer loop
      vertex -12.730573 7.350000 -15.000000
      vertex -8.134733 18.270909 -15.000000
      vertex -10.924229 9.836220 -15.000000
    endloop
  endfacet
  facet normal 0.000000 0.000000 -1.000000
    outer loop
      vertex -19.021130 -6.180340 -15.000000
      vertex -8.134733 18.270909 -15.000000
      vertex -12.730573 7.350000 -15.000000
    endloop
  endfacet
  facet normal 0.000000 0.000000 -1.000000
    outer loop
      vertex -19.021130 -6.180340 -15.000000
      vertex -12.730573 7.350000 -15.000000
      vertex -13.980531 4.542550 -15.000000
    endloop
  endfacet
  facet normal 0.000000 0.000000 -1.000000
    outer loop
      vertex -19.021130 -6.180340 -15.000000
      vertex -13.980531 4.542550 -15.000000
      vertex -14.619472 1.536568 -15.000000
    endloop
  endfacet
  facet normal 0.000000 0.000000 -1.000000
    outer loop
      vertex -14.619472 -1.536568 -15.000000
      vertex -19.021130 -6.180340 -15.000000
      vertex -14.619472 1.536568 -15.000000
    endloop
  endfacet
  facet normal 0.000000 0.000000 -1.000000
    outer loop
      vertex -8.640443 11.892550 -15.000000
      vertex -4.158234 19.562952 -15.000000
      vertex -5.979029 13.429118 -15.000000
    endloop
  endfacet
  facet normal 0.000000 0.000000 -1.000000
    outer loop
      vertex -5.979029 13.429118 -15.000000
      vertex 0.000000 20.000000 -15.000000
      vertex -3.056302 14.378770 -15.000000
    endloop
  endfacet
  facet normal -0.000000 0.000000 -1.000000
    outer loop
      vertex 8.640443 11.892550 -15.000000
      vertex 14.862897 13.382612 -15.000000
      vertex 10.924229 9.836220 -15.000000
    endloop
  endfacet
  facet normal 0.000000 0.000000 -1.000000
    outer loop
      vertex 13.980531 -4.542550 -15.000000
      vertex 19.021130 -6.180340 -15.000000
      vertex 12.730573 -7.350000 -15.000000
    endloop
  endfacet
  facet normal -0.846143 0.000000 0.532955
    outer loop
      vertex -19.890438 -2.090569 -15.000000
      vertex -0.994522 -0.104528 15.000000
      vertex -19.890438 2.090569 -15.000000
    endloop
  endfacet
  facet normal -0.846143 0.000000 0.532955
    outer loop
      vertex -19.890438 2.090569 -15.000000
      vertex -0.994522 -0.104528 15.000000
      vertex -0.994522 0.104528 15.000000
    endloop
  endfacet
  facet normal -0.827653 -0.175923 0.532955
    outer loop
      vertex -0.994522 -0.104528 15.000000
      vertex -19.890438 -2.090569 -15.000000
      vertex -19.021130 -6.180340 -15.000000
    endloop
  endfacet
  facet normal -0.827654 -0.175921 0.532955
    outer loop
      vertex -0.994522 -0.104528 15.000000
      vertex -19.021130 -6.180340 -15.000000
      vertex -0.951057 -0.309017 15.000000
    endloop
  endfacet
  facet normal -0.772991 -0.344158 0.532955
    outer loop
      vertex -0.951057 -0.309017 15.000000
      vertex -19.021130 -6.180340 -15.000000
      vertex -17.320508 -10.000000 -15.000000
    endloop
  endfacet
  facet normal -0.772989 -0.344161 0.532955
    outer loop
      vertex -0.951057 -0.309017 15.000000
      vertex -17.320508 -10.000000 -15.000000
      vertex -0.866025 -0.500000 15.000000
    endloop
  endfacet
  facet normal -0.684544 -0.497351 0.532955
    outer loop
      vertex -0.866025 -0.500000 15.000000
      vertex -17.320508 -10.000000 -15.000000
      vertex -14.862897 -13.382612 -15.000000
    endloop
  endfacet
  facet normal -0.684546 -0.497348 0.532955
    outer loop
      vertex -0.866025 -0.500000 15.000000
      vertex -14.862897 -13.382612 -15.000000
      vertex -0.743145 -0.669131 15.000000
    endloop
  endfacet
  facet normal -0.566180 -0.628807 0.532955
    outer loop
      vertex -0.743145 -0.669131 15.000000
      vertex -14.862897 -13.382612 -15.000000
      vertex -11.755705 -16.180340 -15.000000
    endloop
  endfacet
  facet normal -0.566179 -0.628809 0.532955
    outer loop
      vertex -0.743145 -0.669131 15.000000
      vertex -11.755705 -16.180340 -15.000000
      vertex -0.587785 -0.809017 15.000000
    endloop
  endfacet
  facet normal -0.423072 -0.732782 0.532955
    outer loop
      vertex -0.587785 -0.809017 15.000000
      vertex -11.755705 -16.180340 -15.000000
      vertex -8.134733 -18.270909 -15.000000
    endloop
  endfacet
  facet normal -0.423071 -0.732782 0.532955
    outer loop
      vertex -0.587785 -0.809017 15.000000
      vertex -8.134733 -18.270909 -15.000000
      vertex -0.406737 -0.913545 15.000000
    endloop
  endfacet
  facet normal -0.261473 -0.804730 0.532955
    outer loop
      vertex -0.406737 -0.913545 15.000000
      vertex -8.134733 -18.270909 -15.000000
      vertex -4.158234 -19.562952 -15.000000
    endloop
  endfacet
  facet normal -0.261476 -0.804729 0.532955
    outer loop
      vertex -0.406737 -0.913545 15.000000
      vertex -4.158234 -19.562952 -15.000000
      vertex -0.207912 -0.978148 15.000000
    endloop
  endfacet
  facet normal -0.088446 -0.841508 0.532955
    outer loop
      vertex -0.207912 -0.978148 15.000000
      vertex -4.158234 -19.562952 -15.000000
      vertex 0.000000 -20.000000 -15.000000
    endloop
  endfacet
  facet normal -0.088444 -0.841508 0.532955
    outer loop
      vertex 0.000000 -1.000000 15.000000
      vertex -0.207912 -0.978148 15.000000
      vertex 0.000000 -20.000000 -15.000000
    endloop
  endfacet
  facet normal 0.088446 -0.841508 0.532955
    outer loop
      vertex 0.000000 -1.000000 15.000000
      vertex 0.000000 -20.000000 -15.000000
      vertex 4.158234 -19.562952 -15.000000
    endloop
  endfacet
  facet normal 0.088444 -0.841508 0.532955
    outer loop
      vertex 0.207912 -0.978148 15.000000
      vertex 0.000000 -1.000000 15.000000
      vertex 4.158234 -19.562952 -15.000000
    endloop
  endfacet
  facet normal 0.261473 -0.804730 0.532955
    outer loop
      vertex 8.134733 -18.270909 -15.000000
      vertex 0.207912 -0.978148 15.000000
      vertex 4.158234 -19.562952 -15.000000
    endloop
  endfacet
  facet normal 0.261476 -0.804729 0.532955
    outer loop
      vertex 0.406737 -0.913545 15.000000
      vertex 0.207912 -0.978148 15.000000
      vertex 8.134733 -18.270909 -15.000000
    endloop
  endfacet
  facet normal 0.423072 -0.732782 0.532955
    outer loop
      vertex 11.755705 -16.180340 -15.000000
      vertex 0.406737 -0.913545 15.000000
      vertex 8.134733 -18.270909 -15.000000
    endloop
  endfacet
  facet normal 0.423071 -0.732782 0.532955
    outer loop
      vertex 0.587785 -0.809017 15.000000
      vertex 0.406737 -0.913545 15.000000
      vertex 11.755705 -16.180340 -15.000000
    endloop
  endfacet
  facet normal 0.566180 -0.628807 0.532955
    outer loop
      vertex 14.862897 -13.382612 -15.000000
      vertex 0.587785 -0.809017 15.000000
      vertex 11.755705 -16.180340 -15.000000
    endloop
  endfacet
  facet normal 0.566179 -0.628809 0.532955
    outer loop
      vertex 0.743145 -0.669131 15.000000
      vertex 0.587785 -0.809017 15.000000
      vertex 14.862897 -13.382612 -15.000000
    endloop
  endfacet
  facet normal 0.684544 -0.497351 0.532955
    outer loop
      vertex 17.320508 -10.000000 -15.000000
      vertex 0.743145 -0.669131 15.000000
      vertex 14.862897 -13.382612 -15.000000
    endloop
  endfacet
  facet normal 0.684546 -0.497348 0.532955
    outer loop
      vertex 0.866025 -0.500000 15.000000
      vertex 0.743145 -0.669131 15.000000
      vertex 17.320508 -10.000000 -15.000000
    endloop
  endfacet
  facet normal 0.772991 -0.344158 0.532955
    outer loop
      vertex 19.021130 -6.180340 -15.000000
      vertex 0.866025 -0.500000 15.000000
      vertex 17.320508 -10.000000 -15.000000
    endloop
  endfacet
  facet normal 0.772989 -0.344161 0.532955
    outer loop
      vertex 0.951057 -0.309017 15.000000
      vertex 0.866025 -0.500000 15.000000
      vertex 19.021130 -6.180340 -15.000000
    endloop
  endfacet
  facet normal 0.827653 -0.175923 0.532955
    outer loop
      vertex 19.890438 -2.090569 -15.000000
      vertex 0.951057 -0.309017 15.000000
      vertex 19.021130 -6.180340 -15.000000
    endloop
  endfacet
  facet normal 0.827654 -0.175921 0.532955
    outer loop
      vertex 0.994522 -0.104528 15.000000
      vertex 0.951057 -0.309017 15.000000
      vertex 19.890438 -2.090569 -15.000000
    endloop
  endfacet
  facet normal 0.846143 -0.000000 0.532955
    outer loop
      vertex 0.994522 0.104528 15.000000
      vertex 0.994522 -0.104528 15.000000
      vertex 19.890438 -2.090569 -15.000000
    endloop
  endfacet
  facet normal 0.846143 -0.000000 0.532955
    outer loop
      vertex 19.890438 2.090569 -15.000000
      vertex 0.994522 0.104528 15.000000
      vertex 19.890438 -2.090569 -15.000000
    endloop
  endfacet
  facet normal 0.827653 0.175923 0.532955
    outer loop
      vertex 19.021130 6.180340 -15.000000
      vertex 0.994522 0.104528 15.000000
      vertex 19.890438 2.090569 -15.000000
    endloop
  endfacet
  facet normal 0.827654 0.175921 0.532955
    outer loop
      vertex 19.021130 6.180340 -15.000000
      vertex 0.951057 0.309017 15.000000
      vertex 0.994522 0.104528 15.000000
    endloop
  endfacet
  facet normal 0.772991 0.344158 0.532955
    outer loop
      vertex 17.320508 10.000000 -15.000000
      vertex 0.951057 0.309017 15.000000
      vertex 19.021130 6.180340 -15.000000
    endloop
  endfacet
  facet normal 0.772989 0.344161 0.532955
    outer loop
      vertex 17.320508 10.000000 -15.000000
      vertex 0.866025 0.500000 15.000000
      vertex 0.951057 0.309017 15.000000
    endloop
  endfacet
  facet normal 0.684544 0.497351 0.532955
    outer loop
      vertex 14.862897 13.382612 -15.000000
      vertex 0.866025 0.500000 15.000000
      vertex 17.320508 10.000000 -15.000000
    endloop
  endfacet
  facet normal 0.684546 0.497348 0.532955
    outer loop
      vertex 14.862897 13.382612 -15.000000
      vertex 0.743145 0.669131 15.000000
      vertex 0.866025 0.500000 15.000000
    endloop
  endfacet
  facet normal 0.566180 0.628807 0.532955
    outer loop
      vertex 11.755705 16.180340 -15.000000
      vertex 0.743145 0.669131 15.000000
      vertex 14.862897 13.382612 -15.000000
    endloop
  endfacet
  facet normal 0.566179 0.628809 0.532955
    outer loop
      vertex 11.755705 16.180340 -15.000000
      vertex 0.587785 0.809017 15.000000
      vertex 0.743145 0.669131 15.000000
    endloop
  endfacet
  facet normal 0.423072 0.732782 0.532955
    outer loop
      vertex 8.134733 18.270909 -15.000000
      vertex 0.587785 0.809017 15.000000
      vertex 11.755705 16.180340 -15.000000
    endloop
  endfacet
  facet normal 0.423071 0.732782 0.532955
    outer loop
      vertex 8.134733 18.270909 -15.000000
      vertex 0.406737 0.913545 15.000000
      vertex 0.587785 0.809017 15.000000
    endloop
  endfacet
  facet normal 0.261473 0.804730 0.532955
    outer loop
      vertex 4.158234 19.562952 -15.000000
      vertex 0.406737 0.913545 15.000000
      vertex 8.134733 18.270909 -15.000000
    endloop
  endfacet
  facet normal 0.261476 0.804729 0.532955
    outer loop
      vertex 4.158234 19.562952 -15.000000
      vertex 0.207912 0.978148 15.000000
      vertex 0.406737 0.913545 15.000000
    endloop
  endfacet
  facet normal 0.088446 0.841508 0.532955
    outer loop
      vertex 4.158234 19.562952 -15.000000
      vertex 0.000000 20.000000 -15.000000
      vertex 0.207912 0.978148 15.000000
    endloop
  endfacet
  facet normal 0.088444 0.841508 0.532955
    outer loop
      vertex 0.000000 20.000000 -15.000000
      vertex 0.000000 1.000000 15.000000
      vertex 0.207912 0.978148 15.000000
    endloop
  endfacet
  facet normal -0.088446 0.841508 0.532955
    outer loop
      vertex 0.000000 20.000000 -15.000000
      vertex -4.158234 19.562952 -15.000000
      vertex 0.000000 1.000000 15.000000
    endloop
  endfacet
  facet normal -0.088444 0.841508 0.532955
    outer loop
      vertex 0.000000 1.000000 15.000000
      vertex -4.158234 19.562952 -15.000000
      vertex -0.207912 0.978148 15.000000
    endloop
  endfacet
  facet normal -0.261473 0.804730 0.532955
    outer loop
      vertex -4.158234 19.562952 -15.000000
      vertex -8.134733 18.270909 -15.000000
      vertex -0.207912 0.978148 15.000000
    endloop
  endfacet
  facet normal -0.261476 0.804729 0.532955
    outer loop
      vertex -0.207912 0.978148 15.000000
      vertex -8.134733 18.270909 -15.000000
      vertex -0.406737 0.913545 15.000000
    endloop
  endfacet
  facet normal -0.423072 0.732782 0.532955
    outer loop
      vertex -8.134733 18.270909 -15.000000
      vertex -11.755705 16.180340 -15.000000
      vertex -0.406737 0.913545 15.000000
    endloop
  endfacet
  facet normal -0.423071 0.732782 0.532955
    outer loop
      vertex -0.406737 0.913545 15.000000
      vertex -11.755705 16.180340 -15.000000
      vertex -0.587785 0.809017 15.000000
    endloop
  endfacet
  facet normal -0.566180 0.628807 0.532955
    outer loop
      vertex -11.755705 16.180340 -15.000000
      vertex -14.862897 13.382612 -15.000000
      vertex -0.587785 0.809017 15.000000
    endloop
  endfacet
  facet normal -0.566179 0.628809 0.532955
    outer loop
      vertex -0.587785 0.809017 15.000000
      vertex -14.862897 13.382612 -15.000000
      vertex -0.743145 0.669131 15.000000
    endloop
  endfacet
  facet normal -0.684544 0.497351 0.532955
    outer loop
      vertex -14.862897 13.382612 -15.000000
      vertex -17.320508 10.000000 -15.000000
      vertex -0.743145 0.669131 15.000000
    endloop
  endfacet
  facet normal -0.684546 0.497348 0.532955
    outer loop
      vertex -0.743145 0.669131 15.000000
      vertex -17.320508 10.000000 -15.000000
      vertex -0.866025 0.500000 15.000000
    endloop
  endfacet
  facet normal -0.772991 0.344158 0.532955
    outer loop
      vertex -17.320508 10.000000 -15.000000
      vertex -19.021130 6.180340 -15.000000
      vertex -0.866025 0.500000 15.000000
    endloop
  endfacet
  facet normal -0.772989 0.344161 0.532955
    outer loop
      vertex -0.866025 0.500000 15.000000
      vertex -19.021130 6.180340 -15.000000
      vertex -0.951057 0.309017 15.000000
    endloop
  endfacet
  facet normal -0.827653 0.175923 0.532955
    outer loop
      vertex -19.021130 6.180340 -15.000000
      vertex -19.890438 2.090569 -15.000000
      vertex -0.951057 0.309017 15.000000
    endloop
  endfacet
  facet normal -0.827654 0.175921 0.532955
    outer loop
      vertex -0.951057 0.309017 15.000000
      vertex -19.890438 2.090569 -15.000000
      vertex -0.994522 0.104528 15.000000
    endloop
  endfacet
  facet normal 1.000000 0.000000 0.000000
    outer loop
      vertex -14.619472 1.536568 -15.000000
      vertex -14.619472 1.536568 -10.000000
      vertex -14.619472 -1.536568 -10.000000
    endloop
  endfacet
  facet normal 1.000000 0.000000 0.000000
    outer loop
      vertex -14.619472 -1.536568 -15.000000
      vertex -14.619472 1.536568 -15.000000
      vertex -14.619472 -1.536568 -10.000000
    endloop
  endfacet
  facet normal 0.978148 -0.207912 0.000000
    outer loop
      vertex -13.980531 4.542550 -15.000000
      vertex -13.980531 4.542550 -10.000000
      vertex -14.619472 1.536568 -10.000000
    endloop
  endfacet
  facet normal 0.978148 -0.207912 0.000000
    outer loop
      vertex -14.619472 1.536568 -15.000000
      vertex -13.980531 4.542550 -15.000000
      vertex -14.619472 1.536568 -10.000000
    endloop
  endfacet
  facet normal 0.913545 -0.406737 0.000000
    outer loop
      vertex -12.730573 7.350000 -15.000000
      vertex -12.730573 7.350000 -10.000000
      vertex -13.980531 4.542550 -10.000000
    endloop
  endfacet
  facet normal 0.913545 -0.406737 0.000000
    outer loop
      vertex -13.980531 4.542550 -15.000000
      vertex -12.730573 7.350000 -15.000000
      vertex -13.980531 4.542550 -10.000000
    endloop
  endfacet
  facet normal 0.809017 -0.587785 0.000000
    outer loop
      vertex -10.924229 9.836220 -15.000000
      vertex -10.924229 9.836220 -10.000000
      vertex -12.730573 7.350000 -10.000000
    endloop
  endfacet
  facet normal 0.809017 -0.587785 0.000000
    outer loop
      vertex -12.730573 7.350000 -15.000000
      vertex -10.924229 9.836220 -15.000000
      vertex -12.730573 7.350000 -10.000000
    endloop
  endfacet
  facet normal 0.669131 -0.743145 0.000000
    outer loop
      vertex -8.640443 11.892550 -15.000000
      vertex -8.640443 11.892550 -10.000000
      vertex -10.924229 9.836220 -10.000000
    endloop
  endfacet
  facet normal 0.669131 -0.743145 0.000000
    outer loop
      vertex -10.924229 9.836220 -15.000000
      vertex -8.640443 11.892550 -15.000000
      vertex -10.924229 9.836220 -10.000000
    endloop
  endfacet
  facet normal 0.500000 -0.866025 0.000000
    outer loop
      vertex -5.979029 13.429118 -15.000000
      vertex -5.979029 13.429118 -10.000000
      vertex -8.640443 11.892550 -10.000000
    endloop
  endfacet
  facet normal 0.500000 -0.866025 0.000000
    outer loop
      vertex -8.640443 11.892550 -15.000000
      vertex -5.979029 13.429118 -15.000000
      vertex -8.640443 11.892550 -10.000000
    endloop
  endfacet
  facet normal 0.309017 -0.951056 0.000000
    outer loop
      vertex -3.056302 14.378770 -15.000000
      vertex -3.056302 14.378770 -10.000000
      vertex -5.979029 13.429118 -10.000000
    endloop
  endfacet
  facet normal 0.309017 -0.951056 0.000000
    outer loop
      vertex -5.979029 13.429118 -15.000000
      vertex -3.056302 14.378770 -15.000000
      vertex -5.979029 13.429118 -10.000000
    endloop
  endfacet
  facet normal 0.104528 -0.994522 0.000000
    outer loop
      vertex 0.000000 14.700000 -15.000000
      vertex 0.000000 14.700000 -10.000000
      vertex -3.056302 14.378770 -10.000000
    endloop
  endfacet
  facet normal 0.104528 -0.994522 0.000000
    outer loop
      vertex -3.056302 14.378770 -15.000000
      vertex 0.000000 14.700000 -15.000000
      vertex -3.056302 14.378770 -10.000000
    endloop
  endfacet
  facet normal -0.104528 -0.994522 -0.000000
    outer loop
      vertex 3.056302 14.378770 -15.000000
      vertex 3.056302 14.378770 -10.000000
      vertex 0.000000 14.700000 -10.000000
    endloop
  endfacet
  facet normal -0.104528 -0.994522 -0.000000
    outer loop
      vertex 0.000000 14.700000 -15.000000
      vertex 3.056302 14.378770 -15.000000
      vertex 0.000000 14.700000 -10.000000
    endloop
  endfacet
  facet normal -0.309017 -0.951056 -0.000000
    outer loop
      vertex 5.979029 13.429118 -15.000000
      vertex 5.979029 13.429118 -10.000000
      vertex 3.056302 14.378770 -10.000000
    endloop
  endfacet
  facet normal -0.309017 -0.951056 -0.000000
    outer loop
      vertex 3.056302 14.378770 -15.000000
      vertex 5.979029 13.429118 -15.000000
      vertex 3.056302 14.378770 -10.000000
    endloop
  endfacet
  facet normal -0.500000 -0.866025 -0.000000
    outer loop
      vertex 8.640443 11.892550 -15.000000
      vertex 8.640443 11.892550 -10.000000
      vertex 5.979029 13.429118 -10.000000
    endloop
  endfacet
  facet normal -0.500000 -0.866025 -0.000000
    outer loop
      vertex 5.979029 13.429118 -15.000000
      vertex 8.640443 11.892550 -15.000000
      vertex 5.979029 13.429118 -10.000000
    endloop
  endfacet
  facet normal -0.669131 -0.743145 -0.000000
    outer loop
      vertex 10.924229 9.836220 -15.000000
      vertex 10.924229 9.836220 -10.000000
      vertex 8.640443 11.892550 -10.000000
    endloop
  endfacet
  facet normal -0.669131 -0.743145 -0.000000
    outer loop
      vertex 8.640443 11.892550 -15.000000
      vertex 10.924229 9.836220 -15.000000
      vertex 8.640443 11.892550 -10.000000
    endloop
  endfacet
  facet normal -0.809017 -0.587785 0.000000
    outer loop
      vertex 12.730573 7.350000 -10.000000
      vertex 10.924229 9.836220 -10.000000
      vertex 12.730573 7.350000 -15.000000
    endloop
  endfacet
  facet normal -0.809017 -0.587785 0.000000
    outer loop
      vertex 12.730573 7.350000 -15.000000
      vertex 10.924229 9.836220 -10.000000
      vertex 10.924229 9.836220 -15.000000
    endloop
  endfacet
  facet normal -0.913545 -0.406737 0.000000
    outer loop
      vertex 13.980531 4.542550 -10.000000
      vertex 12.730573 7.350000 -10.000000
      vertex 13.980531 4.542550 -15.000000
    endloop
  endfacet
  facet normal -0.913545 -0.406737 0.000000
    outer loop
      vertex 13.980531 4.542550 -15.000000
      vertex 12.730573 7.350000 -10.000000
      vertex 12.730573 7.350000 -15.000000
    endloop
  endfacet
  facet normal -0.978148 -0.207912 0.000000
    outer loop
      vertex 14.619472 1.536568 -10.000000
      vertex 13.980531 4.542550 -10.000000
      vertex 14.619472 1.536568 -15.000000
    endloop
  endfacet
  facet normal -0.978148 -0.207912 0.000000
    outer loop
      vertex 14.619472 1.536568 -15.000000
      vertex 13.980531 4.542550 -10.000000
      vertex 13.980531 4.542550 -15.000000
    endloop
  endfacet
  facet normal -1.000000 0.000000 0.000000
    outer loop
      vertex 14.619472 1.536568 -10.000000
      vertex 14.619472 1.536568 -15.000000
      vertex 14.619472 -1.536568 -10.000000
    endloop
  endfacet
  facet normal -1.000000 0.000000 0.000000
    outer loop
      vertex 14.619472 -1.536568 -10.000000
      vertex 14.619472 1.536568 -15.000000
      vertex 14.619472 -1.536568 -15.000000
    endloop
  endfacet
  facet normal -0.978148 0.207912 0.000000
    outer loop
      vertex 14.619472 -1.536568 -10.000000
      vertex 14.619472 -1.536568 -15.000000
      vertex 13.980531 -4.542550 -10.000000
    endloop
  endfacet
  facet normal -0.978148 0.207912 0.000000
    outer loop
      vertex 13.980531 -4.542550 -10.000000
      vertex 14.619472 -1.536568 -15.000000
      vertex 13.980531 -4.542550 -15.000000
    endloop
  endfacet
  facet normal -0.913545 0.406737 0.000000
    outer loop
      vertex 13.980531 -4.542550 -10.000000
      vertex 13.980531 -4.542550 -15.000000
      vertex 12.730573 -7.350000 -10.000000
    endloop
  endfacet
  facet normal -0.913545 0.406737 0.000000
    outer loop
      vertex 12.730573 -7.350000 -10.000000
      vertex 13.980531 -4.542550 -15.000000
      vertex 12.730573 -7.350000 -15.000000
    endloop
  endfacet
  facet normal -0.809017 0.587785 0.000000
    outer loop
      vertex 12.730573 -7.350000 -10.000000
      vertex 12.730573 -7.350000 -15.000000
      vertex 10.924229 -9.836220 -10.000000
    endloop
  endfacet
  facet normal -0.809017 0.587785 0.000000
    outer loop
      vertex 10.924229 -9.836220 -10.000000
      vertex 12.730573 -7.350000 -15.000000
      vertex 10.924229 -9.836220 -15.000000
    endloop
  endfacet
  facet normal -0.669131 0.743145 0.000000
    outer loop
      vertex 10.924229 -9.836220 -10.000000
      vertex 10.924229 -9.836220 -15.000000
      vertex 8.640443 -11.892550 -10.000000
    endloop
  endfacet
  facet normal -0.669131 0.743145 0.000000
    outer loop
      vertex 8.640443 -11.892550 -10.000000
      vertex 10.924229 -9.836220 -15.000000
      vertex 8.640443 -11.892550 -15.000000
    endloop
  endfacet
  facet normal -0.500000 0.866025 0.000000
    outer loop
      vertex 8.640443 -11.892550 -10.000000
      vertex 8.640443 -11.892550 -15.000000
      vertex 5.979029 -13.429118 -10.000000
    endloop
  endfacet
  facet normal -0.500000 0.866025 0.000000
    outer loop
      vertex 5.979029 -13.429118 -10.000000
      vertex 8.640443 -11.892550 -15.000000
      vertex 5.979029 -13.429118 -15.000000
    endloop
  endfacet
  facet normal -0.309017 0.951056 0.000000
    outer loop
      vertex 5.979029 -13.429118 -10.000000
      vertex 5.979029 -13.429118 -15.000000
      vertex 3.056302 -14.378770 -10.000000
    endloop
  endfacet
  facet normal -0.309017 0.951056 0.000000
    outer loop
      vertex 3.056302 -14.378770 -10.000000
      vertex 5.979029 -13.429118 -15.000000
      vertex 3.056302 -14.378770 -15.000000
    endloop
  endfacet
  facet normal -0.104528 0.994522 0.000000
    outer loop
      vertex 3.056302 -14.378770 -10.000000
      vertex 3.056302 -14.378770 -15.000000
      vertex 0.000000 -14.700000 -10.000000
    endloop
  endfacet
  facet normal -0.104528 0.994522 0.000000
    outer loop
      vertex 0.000000 -14.700000 -10.000000
      vertex 3.056302 -14.378770 -15.000000
      vertex 0.000000 -14.700000 -15.000000
    endloop
  endfacet
  facet normal 0.104528 0.994522 -0.000000
    outer loop
      vertex 0.000000 -14.700000 -10.000000
      vertex 0.000000 -14.700000 -15.000000
      vertex -3.056302 -14.378770 -10.000000
    endloop
  endfacet
  facet normal 0.104528 0.994522 -0.000000
    outer loop
      vertex -3.056302 -14.378770 -10.000000
      vertex 0.000000 -14.700000 -15.000000
      vertex -3.056302 -14.378770 -15.000000
    endloop
  endfacet
  facet normal 0.309017 0.951056 -0.000000
    outer loop
      vertex -3.056302 -14.378770 -10.000000
      vertex -3.056302 -14.378770 -15.000000
      vertex -5.979029 -13.429118 -10.000000
    endloop
  endfacet
  facet normal 0.309017 0.951056 -0.000000
    outer loop
      vertex -5.979029 -13.429118 -10.000000
      vertex -3.056302 -14.378770 -15.000000
      vertex -5.979029 -13.429118 -15.000000
    endloop
  endfacet
  facet normal 0.500000 0.866025 -0.000000
    outer loop
      vertex -5.979029 -13.429118 -10.000000
      vertex -5.979029 -13.429118 -15.000000
      vertex -8.640443 -11.892550 -10.000000
    endloop
  endfacet
  facet normal 0.500000 0.866025 -0.000000
    outer loop
      vertex -8.640443 -11.892550 -10.000000
      vertex -5.979029 -13.429118 -15.000000
      vertex -8.640443 -11.892550 -15.000000
    endloop
  endfacet
  facet normal 0.669131 0.743145 -0.000000
    outer loop
      vertex -8.640443 -11.892550 -10.000000
      vertex -8.640443 -11.892550 -15.000000
      vertex -10.924229 -9.836220 -10.000000
    endloop
  endfacet
  facet normal 0.669131 0.743145 -0.000000
    outer loop
      vertex -10.924229 -9.836220 -10.000000
      vertex -8.640443 -11.892550 -15.000000
      vertex -10.924229 -9.836220 -15.000000
    endloop
  endfacet
  facet normal 0.809017 0.587785 0.000000
    outer loop
      vertex -12.730573 -7.350000 -10.000000
      vertex -10.924229 -9.836220 -10.000000
      vertex -10.924229 -9.836220 -15.000000
    endloop
  endfacet
  facet normal 0.809017 0.587785 0.000000
    outer loop
      vertex -12.730573 -7.350000 -15.000000
      vertex -12.730573 -7.350000 -10.000000
      vertex -10.924229 -9.836220 -15.000000
    endloop
  endfacet
  facet normal 0.913545 0.406737 0.000000
    outer loop
      vertex -13.980531 -4.542550 -10.000000
      vertex -12.730573 -7.350000 -10.000000
      vertex -12.730573 -7.350000 -15.000000
    endloop
  endfacet
  facet normal 0.913545 0.406737 0.000000
    outer loop
      vertex -13.980531 -4.542550 -15.000000
      vertex -13.980531 -4.542550 -10.000000
      vertex -12.730573 -7.350000 -15.000000
    endloop
  endfacet
  facet normal 0.978148 0.207912 0.000000
    outer loop
      vertex -14.619472 -1.536568 -10.000000
      vertex -13.980531 -4.542550 -10.000000
      vertex -13.980531 -4.542550 -15.000000
    endloop
  endfacet
  facet normal 0.978148 0.207912 0.000000
    outer loop
      vertex -14.619472 -1.536568 -15.000000
      vertex -14.619472 -1.536568 -10.000000
      vertex -13.980531 -4.542550 -15.000000
    endloop
  endfacet
  facet normal 0.000000 -0.000000 1.000000
    outer loop
      vertex -0.994522 0.104528 15.000000
      vertex -0.994522 -0.104528 15.000000
      vertex -0.951057 -0.309017 15.000000
    endloop
  endfacet
  facet normal 0.000000 0.000000 1.000000
    outer loop
      vertex -0.743145 -0.669131 15.000000
      vertex -0.994522 0.104528 15.000000
      vertex -0.866025 -0.500000 15.000000
    endloop
  endfacet
  facet normal 0.000000 0.000000 1.000000
    outer loop
      vertex -0.866025 -0.500000 15.000000
      vertex -0.994522 0.104528 15.000000
      vertex -0.951057 -0.309017 15.000000
    endloop
  endfacet
  facet normal 0.000000 0.000000 1.000000
    outer loop
      vertex -0.587785 -0.809017 15.000000
      vertex -0.994522 0.104528 15.000000
      vertex -0.743145 -0.669131 15.000000
    endloop
  endfacet
  facet normal 0.000000 0.000000 1.000000
    outer loop
      vertex -0.406737 -0.913545 15.000000
      vertex -0.994522 0.104528 15.000000
      vertex -0.587785 -0.809017 15.000000
    endloop
  endfacet
  facet normal 0.000000 0.000000 1.000000
    outer loop
      vertex -0.207912 -0.978148 15.000000
      vertex -0.994522 0.104528 15.000000
      vertex -0.406737 -0.913545 15.000000
    endloop
  endfacet
  facet normal 0.000000 0.000000 1.000000
    outer loop
      vertex 0.000000 -1.000000 15.000000
      vertex -0.994522 0.104528 15.000000
      vertex -0.207912 -0.978148 15.000000
    endloop
  endfacet
  facet normal -0.000000 0.000000 1.000000
    outer loop
      vertex 0.207912 -0.978148 15.000000
      vertex -0.994522 0.104528 15.000000
      vertex 0.000000 -1.000000 15.000000
    endloop
  endfacet
  facet normal -0.000000 0.000000 1.000000
    outer loop
      vertex 0.406737 -0.913545 15.000000
      vertex -0.994522 0.104528 15.000000
      vertex 0.207912 -0.978148 15.000000
    endloop
  endfacet
  facet normal -0.000000 0.000000 1.000000
    outer loop
      vertex 0.587785 -0.809017 15.000000
      vertex -0.994522 0.104528 15.000000
      vertex 0.406737 -0.913545 15.000000
    endloop
  endfacet
  facet normal -0.000000 0.000000 1.000000
    outer loop
      vertex 0.743145 -0.669131 15.000000
      vertex -0.994522 0.104528 15.000000
      vertex 0.587785 -0.809017 15.000000
    endloop
  endfacet
  facet normal -0.000000 0.000000 1.000000
    outer loop
      vertex 0.866025 -0.500000 15.000000
      vertex -0.994522 0.104528 15.000000
      vertex 0.743145 -0.669131 15.000000
    endloop
  endfacet
  facet normal -0.000000 0.000000 1.000000
    outer loop
      vertex 0.951057 -0.309017 15.000000
      vertex -0.994522 0.104528 15.000000
      vertex 0.866025 -0.500000 15.000000
    endloop
  endfacet
  facet normal -0.000000 0.000000 1.000000
    outer loop
      vertex 0.994522 -0.104528 15.000000
      vertex -0.994522 0.104528 15.000000
      vertex 0.951057 -0.309017 15.000000
    endloop
  endfacet
  facet normal 0.000000 0.000000 1.000000
    outer loop
      vertex 0.994522 0.104528 15.000000
      vertex -0.994522 0.104528 15.000000
      vertex 0.994522 -0.104528 15.000000
    endloop
  endfacet
  facet normal 0.000000 -0.000000 1.000000
    outer loop
      vertex 0.951057 0.309017 15.000000
      vertex -0.994522 0.104528 15.000000
      vertex 0.994522 0.104528 15.000000
    endloop
  endfacet
  facet normal 0.000000 -0.000000 1.000000
    outer loop
      vertex 0.866025 0.500000 15.000000
      vertex -0.994522 0.104528 15.000000
      vertex 0.951057 0.309017 15.000000
    endloop
  endfacet
  facet normal 0.000000 -0.000000 1.000000
    outer loop
      vertex 0.743145 0.669131 15.000000
      vertex -0.994522 0.104528 15.000000
      vertex 0.866025 0.500000 15.000000
    endloop
  endfacet
  facet normal 0.000000 -0.000000 1.000000
    outer loop
      vertex 0.587785 0.809017 15.000000
      vertex -0.994522 0.104528 15.000000
      vertex 0.743145 0.669131 15.000000
    endloop
  endfacet
  facet normal 0.000000 -0.000000 1.000000
    outer loop
      vertex 0.406737 0.913545 15.000000
      vertex -0.994522 0.104528 15.000000
      vertex 0.587785 0.809017 15.000000
    endloop
  endfacet
  facet normal 0.000000 -0.000000 1.000000
    outer loop
      vertex 0.207912 0.978148 15.000000
      vertex -0.994522 0.104528 15.000000
      vertex 0.406737 0.913545 15.000000
    endloop
  endfacet
  facet normal 0.000000 -0.000000 1.000000
    outer loop
      vertex 0.000000 1.000000 15.000000
      vertex -0.994522 0.104528 15.000000
      vertex 0.207912 0.978148 15.000000
    endloop
  endfacet
  facet normal 0.000000 -0.000000 1.000000
    outer loop
      vertex -0.207912 0.978148 15.000000
      vertex -0.994522 0.104528 15.000000
      vertex 0.000000 1.000000 15.000000
    endloop
  endfacet
  facet normal 0.000000 -0.000000 1.000000
    outer loop
      vertex -0.406737 0.913545 15.000000
      vertex -0.994522 0.104528 15.000000
      vertex -0.207912 0.978148 15.000000
    endloop
  endfacet
  facet normal 0.000000 -0.000000 1.000000
    outer loop
      vertex -0.587785 0.809017 15.000000
      vertex -0.994522 0.104528 15.000000
      vertex -0.406737 0.913545 15.000000
    endloop
  endfacet
  facet normal 0.000000 -0.000000 1.000000
    outer loop
      vertex -0.743145 0.669131 15.000000
      vertex -0.994522 0.104528 15.000000
      vertex -0.587785 0.809017 15.000000
    endloop
  endfacet
  facet normal 0.000000 -0.000000 1.000000
    outer loop
      vertex -0.866025 0.500000 15.000000
      vertex -0.994522 0.104528 15.000000
      vertex -0.743145 0.669131 15.000000
    endloop
  endfacet
  facet normal 0.000000 -0.000000 1.000000
    outer loop
      vertex -0.951057 0.309017 15.000000
      vertex -0.994522 0.104528 15.000000
      vertex -0.866025 0.500000 15.000000
    endloop
  endfacet
  facet normal -0.000000 0.000000 -1.000000
    outer loop
      vertex -13.980531 4.542550 -10.000000
      vertex -12.730573 7.350000 -10.000000
      vertex -14.619472 1.536568 -10.000000
    endloop
  endfacet
  facet normal 0.000000 0.000000 -1.000000
    outer loop
      vertex -14.619472 1.536568 -10.000000
      vertex -12.730573 7.350000 -10.000000
      vertex -10.924229 9.836220 -10.000000
    endloop
  endfacet
  facet normal 0.000000 0.000000 -1.000000
    outer loop
      vertex -14.619472 1.536568 -10.000000
      vertex -10.924229 9.836220 -10.000000
      vertex -8.640443 11.892550 -10.000000
    endloop
  endfacet
  facet normal 0.000000 0.000000 -1.000000
    outer loop
      vertex -14.619472 1.536568 -10.000000
      vertex -8.640443 11.892550 -10.000000
      vertex -5.979029 13.429118 -10.000000
    endloop
  endfacet
  facet normal 0.000000 0.000000 -1.000000
    outer loop
      vertex -14.619472 1.536568 -10.000000
      vertex -5.979029 13.429118 -10.000000
      vertex -3.056302 14.378770 -10.000000
    endloop
  endfacet
  facet normal 0.000000 0.000000 -1.000000
    outer loop
      vertex -14.619472 1.536568 -10.000000
      vertex -3.056302 14.378770 -10.000000
      vertex 0.000000 14.700000 -10.000000
    endloop
  endfacet
  facet normal 0.000000 0.000000 -1.000000
    outer loop
      vertex -14.619472 1.536568 -10.000000
      vertex 0.000000 14.700000 -10.000000
      vertex 3.056302 14.378770 -10.000000
    endloop
  endfacet
  facet normal 0.000000 0.000000 -1.000000
    outer loop
      vertex -14.619472 1.536568 -10.000000
      vertex 3.056302 14.378770 -10.000000
      vertex 5.979029 13.429118 -10.000000
    endloop
  endfacet
  facet normal 0.000000 0.000000 -1.000000
    outer loop
      vertex -14.619472 1.536568 -10.000000
      vertex 5.979029 13.429118 -10.000000
      vertex 8.640443 11.892550 -10.000000
    endloop
  endfacet
  facet normal 0.000000 0.000000 -1.000000
    outer loop
      vertex -14.619472 1.536568 -10.000000
      vertex 8.640443 11.892550 -10.000000
      vertex 10.924229 9.836220 -10.000000
    endloop
  endfacet
  facet normal 0.000000 0.000000 -1.000000
    outer loop
      vertex -14.619472 1.536568 -10.000000
      vertex 10.924229 9.836220 -10.000000
      vertex 12.730573 7.350000 -10.000000
    endloop
  endfacet
  facet normal 0.000000 0.000000 -1.000000
    outer loop
      vertex -14.619472 1.536568 -10.000000
      vertex 12.730573 7.350000 -10.000000
      vertex 13.980531 4.542550 -10.000000
    endloop
  endfacet
  facet normal -0.000000 0.000000 -1.000000
    outer loop
      vertex -14.619472 1.536568 -10.000000
      vertex 13.980531 4.542550 -10.000000
      vertex 14.619472 1.536568 -10.000000
    endloop
  endfacet
  facet normal 0.000000 0.000000 -1.000000
    outer loop
      vertex -14.619472 1.536568 -10.000000
      vertex 14.619472 1.536568 -10.000000
      vertex 14.619472 -1.536568 -10.000000
    endloop
  endfacet
  facet normal 0.000000 0.000000 -1.000000
    outer loop
      vertex -14.619472 1.536568 -10.000000
      vertex 14.619472 -1.536568 -10.000000
      vertex 13.980531 -4.542550 -10.000000
    endloop
  endfacet
  facet normal 0.000000 0.000000 -1.000000
    outer loop
      vertex -14.619472 1.536568 -10.000000
      vertex 13.980531 -4.542550 -10.000000
      vertex 12.730573 -7.350000 -10.000000
    endloop
  endfacet
  facet normal 0.000000 0.000000 -1.000000
    outer loop
      vertex -14.619472 1.536568 -10.000000
      vertex 12.730573 -7.350000 -10.000000
      vertex 10.924229 -9.836220 -10.000000
    endloop
  endfacet
  facet normal 0.000000 0.000000 -1.000000
    outer loop
      vertex -14.619472 1.536568 -10.000000
      vertex 10.924229 -9.836220 -10.000000
      vertex 8.640443 -11.892550 -10.000000
    endloop
  endfacet
  facet normal 0.000000 0.000000 -1.000000
    outer loop
      vertex -14.619472 1.536568 -10.000000
      vertex 8.640443 -11.892550 -10.000000
      vertex 5.979029 -13.429118 -10.000000
    endloop
  endfacet
  facet normal 0.000000 0.000000 -1.000000
    outer loop
      vertex -14.619472 1.536568 -10.000000
      vertex 5.979029 -13.429118 -10.000000
      vertex 3.056302 -14.378770 -10.000000
    endloop
  endfacet
  facet normal 0.000000 0.000000 -1.000000
    outer loop
      vertex -14.619472 1.536568 -10.000000
      vertex 3.056302 -14.378770 -10.000000
      vertex 0.000000 -14.700000 -10.000000
    endloop
  endfacet
  facet normal 0.000000 0.000000 -1.000000
    outer loop
      vertex -14.619472 1.536568 -10.000000
      vertex 0.000000 -14.700000 -10.000000
      vertex -3.056302 -14.378770 -10.000000
    endloop
  endfacet
  facet normal 0.000000 0.000000 -1.000000
    outer loop
      vertex -14.619472 1.536568 -10.000000
      vertex -3.056302 -14.378770 -10.000000
      vertex -5.979029 -13.429118 -10.000000
    endloop
  endfacet
  facet normal 0.000000 0.000000 -1.000000
    outer loop
      vertex -14.619472 1.536568 -10.000000
      vertex -5.979029 -13.429118 -10.000000
      vertex -8.640443 -11.892550 -10.000000
    endloop
  endfacet
  facet normal 0.000000 0.000000 -1.000000
    outer loop
      vertex -14.619472 1.536568 -10.000000
      vertex -8.640443 -11.892550 -10.000000
      vertex -10.924229 -9.836220 -10.000000
    endloop
  endfacet
  facet normal 0.000000 0.000000 -1.000000
    outer loop
      vertex -14.619472 1.536568 -10.000000
      vertex -10.924229 -9.836220 -10.000000
      vertex -12.730573 -7.350000 -10.000000
    endloop
  endfacet
  facet normal 0.000000 0.000000 -1.000000
    outer loop
      vertex -14.619472 1.536568 -10.000000
      vertex -12.730573 -7.350000 -10.000000
      vertex -13.980531 -4.542550 -10.000000
    endloop
  endfacet
  facet normal 0.000000 0.000000 -1.000000
    outer loop
      vertex -14.619472 1.536568 -10.000000
      vertex -13.980531 -4.542550 -10.000000
      vertex -14.619472 -1.536568 -10.000000
    endloop
  endfacet
endsolid OpenSCAD_Model
